<svg xmlns="http://www.w3.org/2000/svg" xmlns:xlink="http://www.w3.org/1999/xlink" width="500" zoomAndPan="magnify" viewBox="0 0 375 374.999991" height="500" preserveAspectRatio="xMidYMid meet" version="1.0"><defs><g/><clipPath id="9b7aeb1f90"><path d="M 0 172.769531 L 375 172.769531 L 375 202.230469 L 0 202.230469 Z M 0 172.769531 " clip-rule="nonzero"/></clipPath></defs><g fill="#000000" fill-opacity="1"><g transform="translate(87.927929, 269.033923)"><g><path d="M 78.96875 -166.796875 C 89.8125 -166.796875 99.367188 -164.460938 107.640625 -159.796875 C 115.910156 -155.140625 122.523438 -149.054688 127.484375 -141.546875 C 132.453125 -134.035156 135.394531 -126.070312 136.3125 -117.65625 L 126.296875 -117.65625 C 124.859375 -124.78125 122.144531 -131.359375 118.15625 -137.390625 C 114.175781 -143.421875 108.925781 -148.273438 102.40625 -151.953125 C 95.882812 -155.628906 88.070312 -157.46875 78.96875 -157.46875 C 66.675781 -157.46875 56.429688 -154.679688 48.234375 -149.109375 C 40.046875 -143.535156 33.90625 -135.15625 29.8125 -123.96875 C 25.71875 -112.78125 23.671875 -98.765625 23.671875 -81.921875 C 23.671875 -56.660156 28.257812 -37.863281 37.4375 -25.53125 C 46.613281 -13.207031 60.457031 -7.046875 78.96875 -7.046875 C 88.070312 -7.046875 95.882812 -8.867188 102.40625 -12.515625 C 108.925781 -16.160156 114.175781 -20.992188 118.15625 -27.015625 C 122.144531 -33.046875 124.859375 -39.628906 126.296875 -46.765625 L 136.3125 -46.765625 C 135.625 -40.546875 133.765625 -34.492188 130.734375 -28.609375 C 127.703125 -22.734375 123.703125 -17.484375 118.734375 -12.859375 C 113.765625 -8.234375 107.921875 -4.550781 101.203125 -1.8125 C 94.492188 0.914062 87.082031 2.28125 78.96875 2.28125 C 64.78125 2.28125 52.832031 -0.882812 43.125 -7.21875 C 33.414062 -13.550781 26.078125 -22.957031 21.109375 -35.4375 C 16.140625 -47.914062 13.65625 -63.410156 13.65625 -81.921875 C 13.65625 -100.429688 16.140625 -115.976562 21.109375 -128.5625 C 26.078125 -141.15625 33.414062 -150.675781 43.125 -157.125 C 52.832031 -163.570312 64.78125 -166.796875 78.96875 -166.796875 Z M 78.96875 -166.796875 "/></g></g></g><g fill="#000000" fill-opacity="1"><g transform="translate(228.108237, 269.033923)"><g><path d="M 25.03125 -164.53125 L 33.90625 -164.53125 L 33.90625 0 L 25.03125 0 Z M 25.03125 -164.53125 "/></g></g></g><g clip-path="url(#9b7aeb1f90)"><path fill="#ffffff" d="M 0 172.769531 L 374.976562 172.769531 L 374.976562 202.230469 L 0 202.230469 Z M 0 172.769531 " fill-opacity="1" fill-rule="nonzero"/></g><g fill="#000000" fill-opacity="1"><g transform="translate(64.234403, 194.617716)"><g><path d="M 7.671875 -15.546875 C 8.742188 -15.546875 9.695312 -15.320312 10.53125 -14.875 C 11.363281 -14.425781 12.035156 -13.828125 12.546875 -13.078125 C 13.054688 -12.328125 13.359375 -11.5 13.453125 -10.59375 L 11.359375 -10.59375 C 11.242188 -11.195312 11.023438 -11.742188 10.703125 -12.234375 C 10.390625 -12.722656 9.972656 -13.109375 9.453125 -13.390625 C 8.941406 -13.679688 8.328125 -13.828125 7.609375 -13.828125 C 6.679688 -13.828125 5.894531 -13.609375 5.25 -13.171875 C 4.613281 -12.742188 4.128906 -12.078125 3.796875 -11.171875 C 3.472656 -10.265625 3.3125 -9.109375 3.3125 -7.703125 C 3.3125 -5.566406 3.675781 -4 4.40625 -3 C 5.144531 -2 6.210938 -1.5 7.609375 -1.5 C 8.328125 -1.5 8.941406 -1.648438 9.453125 -1.953125 C 9.972656 -2.253906 10.390625 -2.660156 10.703125 -3.171875 C 11.023438 -3.679688 11.242188 -4.234375 11.359375 -4.828125 L 13.453125 -4.828125 C 13.378906 -4.171875 13.203125 -3.539062 12.921875 -2.9375 C 12.648438 -2.332031 12.273438 -1.789062 11.796875 -1.3125 C 11.328125 -0.84375 10.75 -0.46875 10.0625 -0.1875 C 9.375 0.0820312 8.578125 0.21875 7.671875 0.21875 C 6.285156 0.21875 5.109375 -0.09375 4.140625 -0.71875 C 3.171875 -1.351562 2.425781 -2.257812 1.90625 -3.4375 C 1.394531 -4.625 1.140625 -6.050781 1.140625 -7.71875 C 1.140625 -9.375 1.394531 -10.785156 1.90625 -11.953125 C 2.414062 -13.117188 3.15625 -14.007812 4.125 -14.625 C 5.101562 -15.238281 6.285156 -15.546875 7.671875 -15.546875 Z M 7.671875 -15.546875 "/></g></g></g><g fill="#000000" fill-opacity="1"><g transform="translate(82.019023, 194.617716)"><g><path d="M 12.25 -7.078125 L 3.984375 -7.078125 L 3.984375 0 L 2.03125 0 L 2.03125 -15.328125 L 3.984375 -15.328125 L 3.984375 -8.796875 L 12.25 -8.796875 L 12.25 -15.328125 L 14.21875 -15.328125 L 14.21875 0 L 12.25 0 Z M 12.25 -7.078125 "/></g></g></g><g fill="#000000" fill-opacity="1"><g transform="translate(101.447359, 194.617716)"><g><path d="M 2.03125 -15.328125 L 3.984375 -15.328125 L 3.984375 0 L 2.03125 0 Z M 2.03125 -15.328125 "/></g></g></g><g fill="#000000" fill-opacity="1"><g transform="translate(110.631623, 194.617716)"><g><path d="M 2.03125 -15.328125 C 2.070312 -15.328125 2.21875 -15.320312 2.46875 -15.3125 C 2.726562 -15.3125 3.035156 -15.3125 3.390625 -15.3125 C 3.753906 -15.320312 4.128906 -15.320312 4.515625 -15.3125 C 4.898438 -15.3125 5.257812 -15.3125 5.59375 -15.3125 C 7.46875 -15.28125 8.988281 -14.972656 10.15625 -14.390625 C 11.332031 -13.804688 12.191406 -12.957031 12.734375 -11.84375 C 13.285156 -10.738281 13.5625 -9.378906 13.5625 -7.765625 C 13.5625 -6.066406 13.265625 -4.640625 12.671875 -3.484375 C 12.078125 -2.335938 11.175781 -1.46875 9.96875 -0.875 C 8.769531 -0.289062 7.242188 0 5.390625 0 L 2.03125 0 Z M 4.046875 -13.640625 L 4.046875 -1.6875 L 5.390625 -1.6875 C 6.648438 -1.6875 7.734375 -1.878906 8.640625 -2.265625 C 9.554688 -2.660156 10.257812 -3.300781 10.75 -4.1875 C 11.238281 -5.070312 11.484375 -6.253906 11.484375 -7.734375 C 11.484375 -9.203125 11.242188 -10.367188 10.765625 -11.234375 C 10.296875 -12.097656 9.613281 -12.710938 8.71875 -13.078125 C 7.820312 -13.453125 6.738281 -13.640625 5.46875 -13.640625 Z M 4.046875 -13.640625 "/></g></g></g><g fill="#000000" fill-opacity="1"><g transform="translate(128.52229, 194.617716)"><g><path d="M 2.03125 -15.328125 L 3.984375 -15.328125 L 3.984375 0 L 2.03125 0 Z M 2.03125 -15.328125 "/></g></g></g><g fill="#000000" fill-opacity="1"><g transform="translate(137.706554, 194.617716)"><g><path d="M 12 -15.328125 L 13.96875 -15.328125 L 13.96875 0 L 12.21875 0 L 3.984375 -12.078125 L 3.984375 0 L 2.03125 0 L 2.03125 -15.328125 L 3.90625 -15.328125 L 12 -3.40625 Z M 12 -15.328125 "/></g></g></g><g fill="#000000" fill-opacity="1"><g transform="translate(156.880383, 194.617716)"><g><path d="M 2.03125 0 L 2.03125 -15.328125 L 4.734375 -15.328125 L 9.359375 -2.671875 L 14.046875 -15.328125 L 16.75 -15.328125 L 16.75 0 L 14.71875 0 L 14.71875 -12.390625 L 10.28125 0 L 8.453125 0 L 4.046875 -12.28125 L 4.046875 0 Z M 2.03125 0 "/></g></g></g><g fill="#000000" fill-opacity="1"><g transform="translate(178.843229, 194.617716)"><g><path d="M 0.875 0 L 6.421875 -15.328125 L 8.640625 -15.328125 L 14.1875 0 L 12.1875 0 L 10.671875 -4.203125 L 4.40625 -4.203125 L 2.875 0 Z M 4.90625 -6 L 10.15625 -6 L 7.546875 -13.390625 Z M 4.90625 -6 "/></g></g></g><g fill="#000000" fill-opacity="1"><g transform="translate(197.083856, 194.617716)"><g/></g></g><g fill="#000000" fill-opacity="1"><g transform="translate(205.154628, 194.617716)"><g><path d="M 2.03125 -15.328125 L 3.984375 -15.328125 L 3.984375 0 L 2.03125 0 Z M 2.03125 -15.328125 "/></g></g></g><g fill="#000000" fill-opacity="1"><g transform="translate(214.338886, 194.617716)"><g><path d="M 13.71875 0 L 11.5 0 L 6.71875 -7.875 L 4.0625 -4.828125 L 4.0625 0 L 2.03125 0 L 2.03125 -15.328125 L 4.0625 -15.328125 L 4.0625 -7.40625 L 10.9375 -15.328125 L 13.265625 -15.328125 L 8.15625 -9.3125 Z M 13.71875 0 "/></g></g></g><g fill="#000000" fill-opacity="1"><g transform="translate(231.985645, 194.617716)"><g><path d="M 2.03125 0 L 2.03125 -15.328125 L 11.6875 -15.328125 L 11.6875 -13.609375 L 4 -13.609375 L 4 -8.59375 L 10.921875 -8.59375 L 10.921875 -6.875 L 3.984375 -6.875 L 3.984375 -1.765625 L 11.890625 -1.75 L 11.890625 0 Z M 2.03125 0 "/></g></g></g><g fill="#000000" fill-opacity="1"><g transform="translate(248.328038, 194.617716)"><g><path d="M 2.03125 0 L 2.03125 -15.328125 L 6.953125 -15.328125 C 8.816406 -15.328125 10.226562 -14.984375 11.1875 -14.296875 C 12.144531 -13.609375 12.625 -12.617188 12.625 -11.328125 C 12.625 -10.515625 12.410156 -9.816406 11.984375 -9.234375 C 11.566406 -8.660156 10.832031 -8.1875 9.78125 -7.8125 C 10.382812 -7.6875 10.890625 -7.503906 11.296875 -7.265625 C 11.710938 -7.023438 12.046875 -6.742188 12.296875 -6.421875 C 12.546875 -6.097656 12.726562 -5.738281 12.84375 -5.34375 C 12.957031 -4.957031 13.015625 -4.550781 13.015625 -4.125 C 13.015625 -2.738281 12.519531 -1.703125 11.53125 -1.015625 C 10.539062 -0.335938 9.066406 0 7.109375 0 Z M 3.984375 -1.625 L 7.09375 -1.625 C 8.375 -1.625 9.347656 -1.832031 10.015625 -2.25 C 10.679688 -2.675781 11.015625 -3.328125 11.015625 -4.203125 C 11.015625 -4.847656 10.847656 -5.367188 10.515625 -5.765625 C 10.191406 -6.171875 9.75 -6.460938 9.1875 -6.640625 C 8.632812 -6.828125 8.015625 -6.921875 7.328125 -6.921875 L 3.984375 -6.921875 Z M 3.984375 -8.59375 L 7.328125 -8.59375 C 7.734375 -8.59375 8.132812 -8.628906 8.53125 -8.703125 C 8.925781 -8.785156 9.285156 -8.921875 9.609375 -9.109375 C 9.941406 -9.296875 10.210938 -9.550781 10.421875 -9.875 C 10.628906 -10.195312 10.734375 -10.601562 10.734375 -11.09375 C 10.734375 -11.976562 10.390625 -12.632812 9.703125 -13.0625 C 9.023438 -13.488281 8.140625 -13.703125 7.046875 -13.703125 L 3.984375 -13.703125 Z M 3.984375 -8.59375 "/></g></g></g><g fill="#000000" fill-opacity="1"><g transform="translate(265.730889, 194.617716)"><g><path d="M 13.234375 -5.296875 C 13.234375 -4.117188 13.035156 -3.117188 12.640625 -2.296875 C 12.253906 -1.484375 11.648438 -0.859375 10.828125 -0.421875 C 10.003906 0.00390625 8.9375 0.21875 7.625 0.21875 C 6.289062 0.21875 5.210938 0 4.390625 -0.4375 C 3.566406 -0.882812 2.96875 -1.53125 2.59375 -2.375 C 2.21875 -3.21875 2.03125 -4.257812 2.03125 -5.5 L 2.03125 -15.328125 L 4.0625 -15.328125 L 4.0625 -5.203125 C 4.0625 -3.960938 4.367188 -3.035156 4.984375 -2.421875 C 5.597656 -1.804688 6.476562 -1.5 7.625 -1.5 C 8.394531 -1.5 9.050781 -1.632812 9.59375 -1.90625 C 10.132812 -2.175781 10.546875 -2.582031 10.828125 -3.125 C 11.117188 -3.675781 11.265625 -4.367188 11.265625 -5.203125 L 11.265625 -15.328125 L 13.234375 -15.328125 Z M 13.234375 -5.296875 "/></g></g></g><g fill="#000000" fill-opacity="1"><g transform="translate(283.770016, 194.617716)"><g><path d="M 6.609375 -3.609375 C 6.609375 -2.796875 6.515625 -2.101562 6.328125 -1.53125 C 6.148438 -0.957031 5.828125 -0.519531 5.359375 -0.21875 C 4.890625 0.0703125 4.222656 0.21875 3.359375 0.21875 C 2.816406 0.21875 2.304688 0.148438 1.828125 0.015625 C 1.347656 -0.109375 1.03125 -0.203125 0.875 -0.265625 L 1.015625 -2.140625 C 1.234375 -2.066406 1.484375 -1.96875 1.765625 -1.84375 C 2.054688 -1.726562 2.414062 -1.671875 2.84375 -1.671875 C 3.53125 -1.671875 4.003906 -1.859375 4.265625 -2.234375 C 4.523438 -2.617188 4.65625 -3.265625 4.65625 -4.171875 L 4.65625 -15.328125 L 6.609375 -15.328125 Z M 6.609375 -3.609375 "/></g></g></g><g fill="#000000" fill-opacity="1"><g transform="translate(295.19185, 194.617716)"><g><path d="M 7.796875 0.21875 C 6.429688 0.21875 5.25 -0.0859375 4.25 -0.703125 C 3.257812 -1.316406 2.492188 -2.207031 1.953125 -3.375 C 1.410156 -4.550781 1.140625 -5.972656 1.140625 -7.640625 C 1.140625 -9.304688 1.410156 -10.726562 1.953125 -11.90625 C 2.503906 -13.082031 3.28125 -13.984375 4.28125 -14.609375 C 5.28125 -15.234375 6.453125 -15.546875 7.796875 -15.546875 C 9.160156 -15.546875 10.335938 -15.234375 11.328125 -14.609375 C 12.316406 -13.992188 13.078125 -13.097656 13.609375 -11.921875 C 14.148438 -10.742188 14.421875 -9.316406 14.421875 -7.640625 C 14.421875 -5.972656 14.148438 -4.550781 13.609375 -3.375 C 13.078125 -2.207031 12.316406 -1.316406 11.328125 -0.703125 C 10.335938 -0.0859375 9.160156 0.21875 7.796875 0.21875 Z M 7.796875 -1.5 C 8.742188 -1.5 9.550781 -1.710938 10.21875 -2.140625 C 10.882812 -2.566406 11.390625 -3.234375 11.734375 -4.140625 C 12.085938 -5.046875 12.265625 -6.203125 12.265625 -7.609375 C 12.265625 -9.035156 12.085938 -10.207031 11.734375 -11.125 C 11.378906 -12.050781 10.867188 -12.734375 10.203125 -13.171875 C 9.546875 -13.609375 8.742188 -13.828125 7.796875 -13.828125 C 6.867188 -13.828125 6.066406 -13.601562 5.390625 -13.15625 C 4.722656 -12.71875 4.207031 -12.039062 3.84375 -11.125 C 3.488281 -10.207031 3.3125 -9.035156 3.3125 -7.609375 C 3.3125 -6.203125 3.488281 -5.046875 3.84375 -4.140625 C 4.207031 -3.234375 4.722656 -2.566406 5.390625 -2.140625 C 6.066406 -1.710938 6.867188 -1.5 7.796875 -1.5 Z M 7.796875 -1.5 "/></g></g></g></svg>